<?xml version="1.0" encoding="UTF-8" standalone="no"?>
<!DOCTYPE svg PUBLIC "-//W3C//DTD SVG 1.1//EN"
 "http://www.w3.org/Graphics/SVG/1.1/DTD/svg11.dtd">
<!-- Generated by graphviz version 2.44.0 (0)
 -->
<!-- Title: G Pages: 1 -->
<svg width="428pt" height="288pt"
 viewBox="0.00 0.00 428.00 288.00" xmlns="http://www.w3.org/2000/svg" xmlns:xlink="http://www.w3.org/1999/xlink">
<g id="graph0" class="graph" transform="scale(1 1) rotate(0) translate(4 284)">
<title>G</title>
<polygon fill="white" stroke="transparent" points="-4,4 -4,-284 424,-284 424,4 -4,4"/>
<g id="clust1" class="cluster">
<title>cluster0</title>
<polygon fill="none" stroke="black" points="0,-116 0,-191 90,-191 90,-116 0,-116"/>
<text text-anchor="middle" x="45" y="-175.8" font-family="Times-Roman" font-size="14.00">Distance 0</text>
</g>
<g id="clust2" class="cluster">
<title>cluster1</title>
<polygon fill="none" stroke="black" points="110,-35 110,-272 200,-272 200,-35 110,-35"/>
<text text-anchor="middle" x="155" y="-256.8" font-family="Times-Roman" font-size="14.00">Distance 1</text>
</g>
<g id="clust3" class="cluster">
<title>cluster2</title>
<polygon fill="none" stroke="black" points="220,-35 220,-218 310,-218 310,-35 220,-35"/>
<text text-anchor="middle" x="265" y="-202.8" font-family="Times-Roman" font-size="14.00">Distance 2</text>
</g>
<g id="clust4" class="cluster">
<title>cluster3</title>
<polygon fill="none" stroke="black" points="330,-8 330,-137 420,-137 420,-8 330,-8"/>
<text text-anchor="middle" x="375" y="-121.8" font-family="Times-Roman" font-size="14.00">Distance 3</text>
</g>
<!-- 2 -->
<g id="node1" class="node">
<title>2</title>
<ellipse fill="#91bfdb" stroke="black" cx="45" cy="-142" rx="18" ry="18"/>
<text text-anchor="middle" x="45" y="-138.3" font-family="Times-Roman" font-size="14.00">2</text>
</g>
<!-- 0 -->
<g id="node2" class="node">
<title>0</title>
<ellipse fill="#e0f3f8" stroke="black" cx="155" cy="-223" rx="18" ry="18"/>
<text text-anchor="middle" x="155" y="-219.3" font-family="Times-Roman" font-size="14.00">0</text>
</g>
<!-- 2&#45;&#45;0 -->
<g id="edge5" class="edge">
<title>2&#45;&#45;0</title>
<path fill="none" stroke="black" d="M58.77,-153.77C71.37,-165.13 91.38,-182.55 110,-196 119.3,-202.72 130.3,-209.47 138.97,-214.54"/>
</g>
<!-- 1 -->
<g id="node3" class="node">
<title>1</title>
<ellipse fill="#e0f3f8" stroke="black" cx="155" cy="-169" rx="18" ry="18"/>
<text text-anchor="middle" x="155" y="-165.3" font-family="Times-Roman" font-size="14.00">1</text>
</g>
<!-- 2&#45;&#45;1 -->
<g id="edge6" class="edge">
<title>2&#45;&#45;1</title>
<path fill="none" stroke="black" d="M62.88,-146.22C83.16,-151.29 117.01,-159.75 137.24,-164.81"/>
</g>
<!-- 3 -->
<g id="node4" class="node">
<title>3</title>
<ellipse fill="#e0f3f8" stroke="black" cx="155" cy="-115" rx="18" ry="18"/>
<text text-anchor="middle" x="155" y="-111.3" font-family="Times-Roman" font-size="14.00">3</text>
</g>
<!-- 2&#45;&#45;3 -->
<g id="edge7" class="edge">
<title>2&#45;&#45;3</title>
<path fill="none" stroke="black" d="M62.88,-137.78C83.16,-132.71 117.01,-124.25 137.24,-119.19"/>
</g>
<!-- 4 -->
<g id="node5" class="node">
<title>4</title>
<ellipse fill="#e0f3f8" stroke="black" cx="155" cy="-61" rx="18" ry="18"/>
<text text-anchor="middle" x="155" y="-57.3" font-family="Times-Roman" font-size="14.00">4</text>
</g>
<!-- 2&#45;&#45;4 -->
<g id="edge8" class="edge">
<title>2&#45;&#45;4</title>
<path fill="none" stroke="black" d="M58.77,-130.23C71.37,-118.87 91.38,-101.45 110,-88 119.3,-81.28 130.3,-74.53 138.97,-69.46"/>
</g>
<!-- 0&#45;&#45;1 -->
<g id="edge1" class="edge">
<title>0&#45;&#45;1</title>
<path fill="none" stroke="black" d="M155,-204.79C155,-198.91 155,-193.02 155,-187.14"/>
</g>
<!-- 9 -->
<g id="node8" class="node">
<title>9</title>
<ellipse fill="#fee090" stroke="black" cx="265" cy="-169" rx="18" ry="18"/>
<text text-anchor="middle" x="265" y="-165.3" font-family="Times-Roman" font-size="14.00">9</text>
</g>
<!-- 1&#45;&#45;9 -->
<g id="edge13" class="edge">
<title>1&#45;&#45;9</title>
<path fill="none" stroke="black" d="M173.35,-169C193.51,-169 226.56,-169 246.69,-169"/>
</g>
<!-- 4&#45;&#45;3 -->
<g id="edge2" class="edge">
<title>4&#45;&#45;3</title>
<path fill="none" stroke="black" d="M155,-79.14C155,-85.02 155,-90.91 155,-96.79"/>
</g>
<!-- 5 -->
<g id="node6" class="node">
<title>5</title>
<ellipse fill="#fee090" stroke="black" cx="265" cy="-115" rx="18" ry="18"/>
<text text-anchor="middle" x="265" y="-111.3" font-family="Times-Roman" font-size="14.00">5</text>
</g>
<!-- 4&#45;&#45;5 -->
<g id="edge9" class="edge">
<title>4&#45;&#45;5</title>
<path fill="none" stroke="black" d="M171.47,-68.74C192,-79 228.04,-97.02 248.55,-107.28"/>
</g>
<!-- 6 -->
<g id="node7" class="node">
<title>6</title>
<ellipse fill="#fee090" stroke="black" cx="265" cy="-61" rx="18" ry="18"/>
<text text-anchor="middle" x="265" y="-57.3" font-family="Times-Roman" font-size="14.00">6</text>
</g>
<!-- 4&#45;&#45;6 -->
<g id="edge10" class="edge">
<title>4&#45;&#45;6</title>
<path fill="none" stroke="black" d="M173.35,-61C193.51,-61 226.56,-61 246.69,-61"/>
</g>
<!-- 5&#45;&#45;6 -->
<g id="edge3" class="edge">
<title>5&#45;&#45;6</title>
<path fill="none" stroke="black" d="M265,-96.79C265,-90.91 265,-85.02 265,-79.14"/>
</g>
<!-- 7 -->
<g id="node9" class="node">
<title>7</title>
<ellipse fill="#fc8d59" stroke="black" cx="375" cy="-88" rx="18" ry="18"/>
<text text-anchor="middle" x="375" y="-84.3" font-family="Times-Roman" font-size="14.00">7</text>
</g>
<!-- 6&#45;&#45;7 -->
<g id="edge11" class="edge">
<title>6&#45;&#45;7</title>
<path fill="none" stroke="black" d="M282.88,-65.22C303.16,-70.29 337.01,-78.75 357.24,-83.81"/>
</g>
<!-- 8 -->
<g id="node10" class="node">
<title>8</title>
<ellipse fill="#fc8d59" stroke="black" cx="375" cy="-34" rx="18" ry="18"/>
<text text-anchor="middle" x="375" y="-30.3" font-family="Times-Roman" font-size="14.00">8</text>
</g>
<!-- 6&#45;&#45;8 -->
<g id="edge12" class="edge">
<title>6&#45;&#45;8</title>
<path fill="none" stroke="black" d="M282.88,-56.78C303.16,-51.71 337.01,-43.25 357.24,-38.19"/>
</g>
<!-- 7&#45;&#45;8 -->
<g id="edge4" class="edge">
<title>7&#45;&#45;8</title>
<path fill="none" stroke="black" d="M375,-69.79C375,-63.91 375,-58.02 375,-52.14"/>
</g>
</g>
</svg>
